<mxfile host="65bd71144e" modified="2021-02-03T12:08:52.987Z" agent="5.0 (Windows NT 10.0; Win64; x64) AppleWebKit/537.36 (KHTML, like Gecko) Code/1.52.1 Chrome/83.0.4103.122 Electron/9.3.5 Safari/537.36" version="13.10.0" etag="aTKR7fPnAgE4KKvpe5dd" type="embed">
    <diagram id="C6lbU0yHuWrethqiuWpi" name="Page-1">
        <mxGraphModel dx="466" dy="766" grid="1" gridSize="10" guides="1" tooltips="1" connect="1" arrows="1" fold="1" page="1" pageScale="1" pageWidth="827" pageHeight="1169" math="0" shadow="0">
            <root>
                <mxCell id="0"/>
                <mxCell id="1" parent="0"/>
                <mxCell id="2" value="Class" style="rounded=0;whiteSpace=wrap;html=1;verticalAlign=top;" vertex="1" parent="1">
                    <mxGeometry x="260" y="230" width="550" height="360" as="geometry"/>
                </mxCell>
                <mxCell id="3" value="Teacher" style="shape=umlActor;verticalLabelPosition=bottom;verticalAlign=top;html=1;outlineConnect=0;" vertex="1" parent="1">
                    <mxGeometry x="310" y="370" width="30" height="60" as="geometry"/>
                </mxCell>
                <mxCell id="4" value="Teacher" style="shape=umlActor;verticalLabelPosition=bottom;verticalAlign=top;html=1;outlineConnect=0;" vertex="1" parent="1">
                    <mxGeometry x="310" y="270" width="30" height="60" as="geometry"/>
                </mxCell>
                <mxCell id="5" value="" style="group" vertex="1" connectable="0" parent="1">
                    <mxGeometry x="414" y="450" width="150" height="90" as="geometry"/>
                </mxCell>
                <mxCell id="6" value="Students Group C" style="ellipse;whiteSpace=wrap;html=1;verticalAlign=bottom;spacingBottom=10;" vertex="1" parent="5">
                    <mxGeometry width="150" height="90" as="geometry"/>
                </mxCell>
                <mxCell id="7" value="" style="shape=umlActor;verticalLabelPosition=bottom;verticalAlign=top;html=1;outlineConnect=0;" vertex="1" parent="5">
                    <mxGeometry x="87.5" y="10" width="25" height="50" as="geometry"/>
                </mxCell>
                <mxCell id="8" value="" style="shape=umlActor;verticalLabelPosition=bottom;verticalAlign=top;html=1;outlineConnect=0;" vertex="1" parent="5">
                    <mxGeometry x="37.5" y="10" width="25" height="50" as="geometry"/>
                </mxCell>
                <mxCell id="9" value="" style="group;spacingBottom=10;" vertex="1" connectable="0" parent="1">
                    <mxGeometry x="530" y="290" width="150" height="90" as="geometry"/>
                </mxCell>
                <mxCell id="10" value="Students Group A" style="ellipse;whiteSpace=wrap;html=1;verticalAlign=bottom;spacingBottom=10;" vertex="1" parent="9">
                    <mxGeometry width="150" height="90" as="geometry"/>
                </mxCell>
                <mxCell id="11" value="" style="shape=umlActor;verticalLabelPosition=bottom;verticalAlign=top;html=1;outlineConnect=0;" vertex="1" parent="9">
                    <mxGeometry x="87.5" y="10" width="25" height="50" as="geometry"/>
                </mxCell>
                <mxCell id="12" value="" style="shape=umlActor;verticalLabelPosition=bottom;verticalAlign=top;html=1;outlineConnect=0;" vertex="1" parent="9">
                    <mxGeometry x="37.5" y="10" width="25" height="50" as="geometry"/>
                </mxCell>
                <mxCell id="13" value="" style="group;spacingBottom=32;" vertex="1" connectable="0" parent="1">
                    <mxGeometry x="640" y="450" width="150" height="90" as="geometry"/>
                </mxCell>
                <mxCell id="14" value="Students Group B" style="ellipse;whiteSpace=wrap;html=1;verticalAlign=bottom;spacingBottom=10;" vertex="1" parent="13">
                    <mxGeometry width="150" height="90" as="geometry"/>
                </mxCell>
                <mxCell id="15" value="" style="shape=umlActor;verticalLabelPosition=bottom;verticalAlign=top;html=1;outlineConnect=0;" vertex="1" parent="13">
                    <mxGeometry x="87.5" y="10" width="25" height="50" as="geometry"/>
                </mxCell>
                <mxCell id="16" value="" style="shape=umlActor;verticalLabelPosition=bottom;verticalAlign=top;html=1;outlineConnect=0;" vertex="1" parent="13">
                    <mxGeometry x="37.5" y="10" width="25" height="50" as="geometry"/>
                </mxCell>
                <mxCell id="17" value="rates" style="endArrow=classic;html=1;curved=1;" edge="1" parent="1" source="10" target="14">
                    <mxGeometry width="50" height="50" relative="1" as="geometry">
                        <mxPoint x="390" y="420" as="sourcePoint"/>
                        <mxPoint x="440" y="370" as="targetPoint"/>
                        <Array as="points">
                            <mxPoint x="715" y="390"/>
                        </Array>
                    </mxGeometry>
                </mxCell>
                <mxCell id="18" value="rates" style="endArrow=classic;html=1;curved=1;" edge="1" parent="1" source="14" target="6">
                    <mxGeometry width="50" height="50" relative="1" as="geometry">
                        <mxPoint x="672.6165959698033" y="373.8082979849016" as="sourcePoint"/>
                        <mxPoint x="701.3" y="465.6700000000001" as="targetPoint"/>
                        <Array as="points">
                            <mxPoint x="600" y="520"/>
                        </Array>
                    </mxGeometry>
                </mxCell>
                <mxCell id="19" value="rates" style="endArrow=classic;html=1;curved=1;" edge="1" parent="1" source="6" target="10">
                    <mxGeometry width="50" height="50" relative="1" as="geometry">
                        <mxPoint x="390" y="420" as="sourcePoint"/>
                        <mxPoint x="440" y="370" as="targetPoint"/>
                        <Array as="points">
                            <mxPoint x="490" y="390"/>
                        </Array>
                    </mxGeometry>
                </mxCell>
            </root>
        </mxGraphModel>
    </diagram>
</mxfile>